<svg xmlns="http://www.w3.org/2000/svg" version="1.0" width="25" viewBox="0 0 640.000000 1280.000000" preserveAspectRatio="xMidYMid meet">
<g transform="translate(0.000000,1280.000000) scale(0.100000,-0.100000)" fill="#000000" stroke="none">
<path d="M3112 12784 c-112 -30 -210 -113 -265 -223 -30 -61 -32 -73 -32 -166 0 -94 3 -105 38 -181 39 -87 44 -112 25 -147 -6 -12 -56 -71 -111 -132 -55 -60 -127 -150 -160 -200 -428 -649 -611 -2015 -422 -3142 50 -298 106 -502 218 -803 l65 -175 -197 -6 c-177 -5 -203 -8 -274 -32 -155 -54 -230 -128 -230 -230 0 -65 20 -105 81 -163 89 -85 191 -114 409 -114 103 0 240 -14 251 -25 4 -4 -125 -494 -243 -930 -24 -88 -116 -428 -205 -755 -89 -327 -378 -1387 -642 -2355 -264 -968 -486 -1780 -492 -1805 -14 -50 -6 -46 -162 -84 -230 -55 -325 -139 -374 -333 -25 -97 -42 -371 -38 -608 l3 -170 2848 -3 2847 -2 0 197 c0 109 -5 266 -10 348 -24 379 -119 508 -424 574 l-78 17 -24 58 c-33 82 -142 415 -218 666 -134 445 -266 903 -871 3020 l-621 2175 35 7 c20 4 135 7 256 7 255 1 370 13 440 45 158 72 220 216 143 332 -18 27 -55 65 -82 85 -85 64 -126 71 -434 76 -249 5 -273 6 -267 21 189 466 274 831 335 1432 18 172 24 726 11 911 -13 173 -48 454 -76 608 -14 75 -20 91 -34 89 -26 -5 -155 -208 -344 -538 -169 -296 -269 -464 -301 -505 -16 -20 -17 -19 -47 15 -16 19 -64 93 -105 165 -56 96 -73 134 -67 145 72 116 743 1271 743 1278 0 20 -159 342 -211 430 -62 102 -146 218 -204 282 -91 99 -93 117 -30 233 78 144 84 278 19 410 -79 163 -286 251 -472 201z"/>
</g>
</svg>