<svg xmlns="http://www.w3.org/2000/svg" version="1.0" width="35" viewBox="0 0 1280.000000 1259.000000" preserveAspectRatio="xMidYMid meet">

<g transform="translate(0.000000,1259.000000) scale(0.100000,-0.100000)" fill="#000000" stroke="none">
<path d="M6200 12270 l0 -320 -485 0 -485 0 0 -220 0 -220 479 0 c264 0 482 -4 485 -8 2 -4 2 -265 -1 -579 l-6 -570 -138 -67 c-252 -122 -419 -270 -583 -516 -116 -173 -229 -442 -258 -612 -17 -99 -17 -707 0 -843 29 -233 76 -421 219 -875 98 -314 143 -466 143 -487 0 -24 -15 -12 -60 45 -187 235 -517 586 -729 776 -270 241 -615 490 -931 672 -300 172 -692 351 -938 428 -327 102 -678 154 -958 143 -472 -20 -858 -158 -1209 -432 -99 -77 -305 -288 -367 -375 -102 -145 -220 -386 -283 -582 -72 -222 -100 -415 -92 -618 14 -298 79 -534 236 -850 125 -253 187 -344 690 -1023 378 -508 580 -814 866 -1307 81 -140 165 -280 186 -310 57 -82 71 -178 148 -1018 l49 -531 -58 -458 c-72 -564 -76 -605 -60 -663 20 -73 63 -105 275 -202 105 -48 240 -107 300 -131 653 -266 1423 -427 2320 -487 613 -41 2364 -38 2925 5 759 58 1405 176 1960 357 250 81 800 325 856 379 68 66 68 89 -20 777 l-54 423 49 530 c77 841 91 937 148 1019 21 30 105 170 186 310 286 493 488 799 866 1307 503 679 565 770 690 1023 227 456 287 842 199 1265 -52 251 -195 583 -338 785 -62 87 -268 298 -367 375 -479 374 -1060 506 -1730 394 -336 -56 -670 -171 -1045 -358 -480 -240 -890 -516 -1261 -847 -212 -190 -542 -541 -729 -776 -45 -57 -60 -69 -60 -45 0 21 45 173 143 487 197 628 223 763 234 1210 10 443 -13 598 -126 850 -93 206 -217 389 -367 536 -107 105 -211 178 -371 258 l-113 56 0 580 0 580 470 0 470 0 0 220 0 220 -470 0 -470 0 0 320 0 320 -215 0 -215 0 0 -320z"/>
</g>
</svg>